<svg id="OBJECTS" xmlns="http://www.w3.org/2000/svg" viewBox="0 0 500 400">
    <path d="M181.09,243.17q-6.68.29-9.58-3-3.51,2.49-5.15,2.49a1.37,1.37,0,0,1-1.29-.79,3.57,3.57,0,0,1-.42-1.7,13.82,13.82,0,0,1,1.47-5.07q1.75-3.74,3.24-3.74c.5,0,.89.74,1.15,2.2a25.93,25.93,0,0,0,1.24,4.55c.88-.85,2-2,3.29-3.48s2.84-3.24,4.57-5.32q6.46-7.82,8.58-8.55a4.27,4.27,0,0,1,1.43-.25,2.38,2.38,0,0,1,1.3.31.89.89,0,0,1,.5.71c0,.42-.39.66-1.16.74a11.05,11.05,0,0,0-2,1.39c-.81.66-1.67,1.41-2.56,2.26s-1.72,1.67-2.49,2.49-1.4,1.52-1.87,2.11a49,49,0,0,1-8.54,8.73l-.24.18a6.65,6.65,0,0,0,3.07,2.39,11.52,11.52,0,0,0,4,.66,23.54,23.54,0,0,0,6.92-1,19.07,19.07,0,0,0,5.95-3,16.7,16.7,0,0,0,4.37-4.9,11.78,11.78,0,0,0,1.87-6,7.82,7.82,0,0,0-.92-3.69,9.68,9.68,0,0,0-2.45-3,7.78,7.78,0,0,0-3.41-1.61,23.59,23.59,0,0,0-4.59-.44,25,25,0,0,0-11.33,2.6c-3.65,1.84-5.47,3.89-5.47,6.17a2.25,2.25,0,0,0,.6,1.57,2.46,2.46,0,0,0,.68.59h-.24a3.26,3.26,0,0,1-1.91-1,2.62,2.62,0,0,1-.8-1.87,5.44,5.44,0,0,1,1.29-3.5,12.27,12.27,0,0,1,3.77-2.92,24.86,24.86,0,0,1,11.69-2.6c1,0,2,.05,3,.15a27.27,27.27,0,0,1,3,.44,12.74,12.74,0,0,1,4.71,1.94,11.57,11.57,0,0,1,3.39,3.48,8.26,8.26,0,0,1,1.27,4.44,11.08,11.08,0,0,1-1.75,5.69,16.32,16.32,0,0,1-4.53,5,21.06,21.06,0,0,1-6.24,3A30.29,30.29,0,0,1,181.09,243.17ZM166.56,242a15.32,15.32,0,0,0,4.15-2.9,11.83,11.83,0,0,1-1.51-3,12.55,12.55,0,0,1-.36-2.46q-2.76,3.63-2.76,6.35A3.92,3.92,0,0,0,166.56,242Z" style="fill:#fff"/><path d="M203.47,241.23a3.48,3.48,0,0,1-1.92-.63,2.11,2.11,0,0,1-1.07-1.46c-.27-1.89,1-4.12,3.87-6.72s5.35-3.88,7.62-3.88a2.25,2.25,0,0,1,1.43.4,1.48,1.48,0,0,1,.42.7c.09.29.17.44.22.44a.61.61,0,0,0,.28-.06.61.61,0,0,1,.28-.05,1.2,1.2,0,0,1,.84.33,1.14,1.14,0,0,1,.4.58q0,.08-2.56,3.63c-1.73,2.33-2.51,3.9-2.35,4.74.13.56.42.84.88.84q2.07,0,7.58-6.31a.33.33,0,0,1,.24-.15c.13,0,.2.09.2.26a1.26,1.26,0,0,1-.36.73q-5.07,6.27-7.78,6.28a2.15,2.15,0,0,1-.68-.11,2.4,2.4,0,0,1-1.76-2.43,5.27,5.27,0,0,1,.16-1.24l-2.47,2.2a9.44,9.44,0,0,1-2,1.47A3.55,3.55,0,0,1,203.47,241.23Zm-.36-.81q2.31,0,6.3-4.66l4.23-5.35a1.12,1.12,0,0,0-1-.52q-2.43,0-6.58,3.6-4.31,3.66-3.87,6C202.28,240.13,202.6,240.42,203.11,240.42Z" style="fill:#fff"/><path d="M218.15,248.56a3,3,0,0,1-2.23-1,3.08,3.08,0,0,1-.92-2.27c.32.36.74.79,1.27,1.28a3.15,3.15,0,0,0,2,.92c1.52,0,3.15-1.12,4.91-3.34A32,32,0,0,0,227,238l1.51-3.37-5.86,4.21q-2.72,1.95-4.35,1.95a1.78,1.78,0,0,1-1.4-.59,1.84,1.84,0,0,1-.52-1.21q0-1.57,3-5.17c2-2.42,3.44-3.63,4.43-3.63q1.23,0,1.23.84c0,.22-1.18,1.5-3.55,3.82s-3.51,3.85-3.51,4.66c0,.31.23.47.68.47q1.28,0,5.54-3c1.17-.86,2.21-1.64,3.12-2.35s1.66-1.34,2.27-1.91l.64-.71q.32-.35.6-.72a2.14,2.14,0,0,1,1.51-.8c.72,0,1.08.27,1.08.8a20.26,20.26,0,0,1-1.67,2.42c-.59.84-1.06,1.48-1.4,1.93a5.78,5.78,0,0,0-.6.86c-.82,1.47-2.09,3.61-3.79,6.42Q222,248.56,218.15,248.56Z" style="fill:#fff"/><path d="M233.43,241.45a2.08,2.08,0,0,1-1.46-.54,2.5,2.5,0,0,1-.57-1.88,5.15,5.15,0,0,1,.37-1.78,16.26,16.26,0,0,1,1-2q.59-1,1.14-1.83c1.49-2.23,2.71-3.35,3.67-3.38a1.92,1.92,0,0,1,.88.28c.34.18.52.38.52.6l-3,3.6q-3,3.56-3,5.06c0,.78.33,1.17,1,1.17a4,4,0,0,0,1.65-.49A16.16,16.16,0,0,0,237.7,239a22.82,22.82,0,0,0,2.13-1.65,17.34,17.34,0,0,0,1.66-1.61,3.12,3.12,0,0,1,.7-.66,1.22,1.22,0,0,1,.38-.19c.1,0,.16.08.16.22s-.16.37-.46.74a16.23,16.23,0,0,1-1.26,1.28c-.64.59-1.34,1.22-2.11,1.91a13.15,13.15,0,0,1-2.52,1.74A6.19,6.19,0,0,1,233.43,241.45Z" style="fill:#fff"/><path d="M251.18,241.12a1.8,1.8,0,0,1-1.51-.57,2.26,2.26,0,0,1-.44-1.41,8.32,8.32,0,0,1,1.6-4.55l2.55-3.82a34.56,34.56,0,0,0-5.39,4.59c-.48.49-1,1.06-1.61,1.72s-1.26,1.42-2,2.28c-1,1.14-1.53,1.72-1.71,1.72a1.1,1.1,0,0,1-.92-.46,1.38,1.38,0,0,1-.36-.82,5.67,5.67,0,0,1,.2-1.09,7.05,7.05,0,0,1,.48-1.37c.18-.42.38-.83.58-1.23s.39-.8.57-1.19l-2.39,2.31-.48.44a1.11,1.11,0,0,1-.64.36c-.13,0-.2-.08-.2-.25a.49.49,0,0,1,.06-.2,1.25,1.25,0,0,1,.26-.32c.4-.36.82-.75,1.24-1.17a19.06,19.06,0,0,0,1.32-1.43l1.07-1.23,1.58-1.78c.57-.63,1.11-1.22,1.62-1.76a1.15,1.15,0,0,1,.75-.44c.72,0,1.08.26,1.08.77a.88.88,0,0,1-.12.44q-3.58,4.56-4.31,6.93,4.63-4.25,7.44-6.39c1.88-1.44,3.22-2.15,4-2.15a2.14,2.14,0,0,1,1,.18.73.73,0,0,1,.34.7.78.78,0,0,1,0,.29,22.7,22.7,0,0,1-1.64,2.06c-.61.68-1.15,1.31-1.61,1.87s-.85,1-1.14,1.46a9.84,9.84,0,0,0-1.08,1.93,4.22,4.22,0,0,0-.35,1.52,3.25,3.25,0,0,0,.07.63.44.44,0,0,0,.48.36,6,6,0,0,0,2.88-1.46c.61-.49,1.18-1,1.71-1.49s1-1,1.52-1.49a6.91,6.91,0,0,0,.52-.56c.24-.29.38-.43.44-.43s.15.1.15.3a1.4,1.4,0,0,1-.17.49,1.81,1.81,0,0,1-.38.53c-.3.32-.73.76-1.3,1.32S255.7,238.4,255,239a17.67,17.67,0,0,1-2.05,1.5A3.43,3.43,0,0,1,251.18,241.12Z" style="fill:#fff"/><path d="M258.53,241.45a2,2,0,0,1-1.46-.54,2.46,2.46,0,0,1-.58-1.88,5.19,5.19,0,0,1,.38-1.78,13.86,13.86,0,0,1,1-2c.38-.68.76-1.29,1.13-1.83,1.49-2.23,2.72-3.35,3.68-3.38a1.89,1.89,0,0,1,.87.28c.35.18.52.38.52.6l-3,3.6c-2,2.37-3,4.06-3,5.06q0,1.17,1,1.17a4,4,0,0,0,1.66-.49,15.47,15.47,0,0,0,2.13-1.27,23,23,0,0,0,2.14-1.65,16,16,0,0,0,1.65-1.61,3.12,3.12,0,0,1,.7-.66,1.34,1.34,0,0,1,.38-.19c.11,0,.16.08.16.22s-.15.37-.46.74a14.32,14.32,0,0,1-1.25,1.28c-.64.59-1.35,1.22-2.12,1.91a13.09,13.09,0,0,1-2.51,1.74A6.22,6.22,0,0,1,258.53,241.45Z" style="fill:#fff"/><path d="M276.28,241.12a1.82,1.82,0,0,1-1.52-.57,2.26,2.26,0,0,1-.44-1.41,8.4,8.4,0,0,1,1.6-4.55l2.55-3.82a34.51,34.51,0,0,0-5.38,4.59c-.48.49-1,1.06-1.62,1.72s-1.25,1.42-2,2.28c-1,1.14-1.53,1.72-1.72,1.72a1.11,1.11,0,0,1-.92-.46,1.38,1.38,0,0,1-.36-.82,5.67,5.67,0,0,1,.2-1.09,8.69,8.69,0,0,1,.48-1.37c.19-.42.38-.83.58-1.23s.39-.8.58-1.19L266,237.23c-.06.05-.22.19-.48.44a1.13,1.13,0,0,1-.64.36c-.13,0-.2-.08-.2-.25a.49.49,0,0,1,.06-.2,1.25,1.25,0,0,1,.26-.32c.4-.36.81-.75,1.24-1.17a19.06,19.06,0,0,0,1.31-1.43l1.08-1.23c.48-.55,1-1.14,1.58-1.78l1.61-1.76a1.1,1.1,0,0,1,.44-.35,1.22,1.22,0,0,1,.32-.09c.72,0,1.08.26,1.08.77a.88.88,0,0,1-.12.44c-2.4,3-3.83,5.35-4.31,6.93q4.62-4.25,7.44-6.39c1.87-1.44,3.21-2.15,4-2.15a2.17,2.17,0,0,1,1,.18.75.75,0,0,1,.34.7,1.06,1.06,0,0,1,0,.29,22.7,22.7,0,0,1-1.64,2.06c-.61.68-1.15,1.31-1.62,1.87s-.84,1-1.13,1.46a9.84,9.84,0,0,0-1.08,1.93,4.27,4.27,0,0,0-.36,1.52,3.37,3.37,0,0,0,.08.63.43.43,0,0,0,.48.36,6,6,0,0,0,2.87-1.46c.61-.49,1.18-1,1.72-1.49s1-1,1.51-1.49a5.44,5.44,0,0,0,.52-.56c.24-.29.39-.43.44-.43s.16.1.16.3a1.28,1.28,0,0,1-.18.49,1.81,1.81,0,0,1-.38.53c-.29.32-.72.76-1.3,1.32s-1.21,1.14-1.91,1.73a17.74,17.74,0,0,1-2.06,1.5A3.4,3.4,0,0,1,276.28,241.12Z" style="fill:#fff"/><path d="M303.49,250.36a5.12,5.12,0,0,1-2-.44,5.27,5.27,0,0,1-1.71-1.18,2.23,2.23,0,0,1-.7-1.57c0-.52.28-.77.84-.77a1.46,1.46,0,0,1,.3,0l.3.05a9,9,0,0,0,1,2.33,2.45,2.45,0,0,0,2.12.75q2.47,0,5.41-3.12a57.59,57.59,0,0,0,6.64-9.2l7.18-11.77-4.15,4.07q-2.55,2.49-4.23,4.07L312,235.91c-1,.88-1.9,1.7-2.83,2.45a16.07,16.07,0,0,1-2.78,1.84,6.21,6.21,0,0,1-2.81.7c-1.52,0-2.27-.82-2.27-2.46a9.36,9.36,0,0,1,2.71-6.05c.66-.74,1.33-1.47,2-2.2s1.33-1.48,2-2.24a57.61,57.61,0,0,0,4.75-6.13,12.93,12.93,0,0,0,.85-1.61,3.19,3.19,0,0,0,.3-1.25,1.26,1.26,0,0,0-.76-1.19,5.61,5.61,0,0,0-2.43-.38q-4.23,0-11.69,4.69a17.91,17.91,0,0,0-3.31,2.61,14.5,14.5,0,0,0-2.51,3.22,6.64,6.64,0,0,0-1,3.27,2.61,2.61,0,0,0,1.06,2.33,4.58,4.58,0,0,0,2.61.71,8.49,8.49,0,0,0,4.51-1.61,33.85,33.85,0,0,1,3.27-1.91q-.4,1.35-3.15,3a11.55,11.55,0,0,1-5.67,1.72,3.83,3.83,0,0,1-3.15-1.32,4.71,4.71,0,0,1-1.08-3.08q0-5,7.94-10.19a21.86,21.86,0,0,1,3.85-2,32.59,32.59,0,0,1,4.61-1.49,18.18,18.18,0,0,1,4.23-.57,6.77,6.77,0,0,1,3,.63,2.09,2.09,0,0,1,1.28,2c0,1.13-.79,2.8-2.36,5-.66.95-1.57,2.13-2.73,3.52s-2.56,3-4.21,4.8a11.43,11.43,0,0,0-1.83,2.79,6.59,6.59,0,0,0-.84,2.72q0,1,.84,1a5.51,5.51,0,0,0,2.59-1.14,74.39,74.39,0,0,0,10-8,56.91,56.91,0,0,0,6.83-7.34c1.09-1.44,2.24-2.16,3.47-2.16.42,0,.64.12.64.36a.77.77,0,0,1,0,.15l-.06.15q-2.12,3.4-5.53,8.76t-8.16,12.66a25,25,0,0,1-3.07,3.74,17.49,17.49,0,0,1-3.71,2.86A8,8,0,0,1,303.49,250.36Z" style="fill:#fff"/><path d="M327.31,241.52a3.89,3.89,0,0,1-2.32-.75,2.35,2.35,0,0,1-1-2c0-1.74,1.15-3.72,3.47-5.94s4.48-3.38,6.34-3.38a2.39,2.39,0,0,1,1.5.46,1.41,1.41,0,0,1,.58,1.12c0,1.37-1.19,2.71-3.55,4a11.44,11.44,0,0,1-5.31,1.76,1.91,1.91,0,0,1-.56-.07,4,4,0,0,0-.6,2.09,1.71,1.71,0,0,0,2,1.91q2,0,5.14-2.46a24.4,24.4,0,0,0,4.15-3.81c.24-.3.45-.44.64-.44s.24.07.24.22a1.24,1.24,0,0,1-.32.62,20.92,20.92,0,0,1-2.39,2.49,22.27,22.27,0,0,1-2.76,2.1A10,10,0,0,1,327.31,241.52Zm.24-5.5a8.65,8.65,0,0,0,3.95-1.4,16.09,16.09,0,0,0,1.57-1.15,7.8,7.8,0,0,0,1.28-1.3,2.06,2.06,0,0,0,.5-1.18c0-.31-.28-.47-.84-.47a6.45,6.45,0,0,0-3.35,1.65,20.48,20.48,0,0,0-2,1.76,12.17,12.17,0,0,0-1.63,2A1.72,1.72,0,0,0,327.55,236Z" style="fill:#fff"/><path d="M343.67,241.23a2.84,2.84,0,0,1-2.36-.83,3.57,3.57,0,0,1-.64-2.22,8.7,8.7,0,0,1,1-3.67,14.21,14.21,0,0,1,.84-1.52,13.62,13.62,0,0,1,.92-1.26l-.28,0H343c-.64,0-1.17-.41-1.6-1.24l-3,3.52c-1.57,1.88-2.53,2.82-2.87,2.82-.14,0-.2-.05-.2-.15a.85.85,0,0,1,.2-.47,3.08,3.08,0,0,1,.48-.59c1-1.07,1.94-2.14,2.79-3.19a22,22,0,0,0,2.11-3.08c.61-2.13,1.39-3.19,2.32-3.19.61,0,.91.26.91.77a3.24,3.24,0,0,1-1,1.83c-.64.76-1,1.15-1,1.18,0,.51.41.77,1.24.77a3.34,3.34,0,0,0,1.59-.48l1-.59a.7.7,0,0,1,.24,0,1.15,1.15,0,0,1,.84.36q.36.38.24.66l-2.76,3.19c-1.7,2-2.55,3.62-2.55,4.85s.58,1.65,1.76,1.65a6,6,0,0,0,2.57-.66,15.6,15.6,0,0,0,2.67-1.64,16.46,16.46,0,0,0,2.18-1.89l.95-1,.2-.19a.37.37,0,0,1,.2-.11c.19,0,.28.09.28.26a.64.64,0,0,1-.08.26,1.4,1.4,0,0,1-.28.4l-1.27,1.32A17.53,17.53,0,0,1,349,239a14.49,14.49,0,0,1-2.75,1.59A6.42,6.42,0,0,1,343.67,241.23Z" style="fill:#fff"/><path d="M352.68,241.45a2,2,0,0,1-1.45-.54,2.46,2.46,0,0,1-.58-1.88,5,5,0,0,1,.38-1.78,14.87,14.87,0,0,1,1-2q.58-1,1.14-1.83c1.49-2.23,2.71-3.35,3.67-3.38a1.92,1.92,0,0,1,.88.28c.34.18.52.38.52.6l-3,3.6q-3,3.56-3,5.06c0,.78.34,1.17,1,1.17a4,4,0,0,0,1.66-.49A16.08,16.08,0,0,0,357,239a23,23,0,0,0,2.14-1.65,17.1,17.1,0,0,0,1.65-1.61,3.12,3.12,0,0,1,.7-.66,1.22,1.22,0,0,1,.38-.19c.1,0,.16.08.16.22s-.16.37-.46.74a16.23,16.23,0,0,1-1.26,1.28c-.64.59-1.34,1.22-2.11,1.91a12.85,12.85,0,0,1-2.52,1.74A6.16,6.16,0,0,1,352.68,241.45Zm7.38-13a1.79,1.79,0,0,1-1.17-.41,1.14,1.14,0,0,1-.5-.91c0-.69.5-1,1.51-1a2.1,2.1,0,0,1,1.12.35,1,1,0,0,1,.56.86,1,1,0,0,1-.52.79A1.84,1.84,0,0,1,360.06,228.43Z" style="fill:#fff"/><path d="M187.64,267.35h-1.17a6.49,6.49,0,0,0-.6-.85,18.27,18.27,0,0,0-1.28-1.53c-.53-.54-.91-.81-1.17-.81h-.16c0,.76,0,1.82.05,3.19h-1c.06-1,.08-2.13.08-3.34s0-2.16-.08-3h1c0,.86-.05,1.74-.05,2.64h.12c.2,0,.68-.42,1.46-1.25A7.06,7.06,0,0,0,186,261h1.1A5.66,5.66,0,0,1,186,262.2a15.81,15.81,0,0,1-1.69,1.43v0a6.84,6.84,0,0,1,2,1.94A10.58,10.58,0,0,1,187.64,267.35Z" style="fill:#fff"/><path d="M194.78,264.07a3.35,3.35,0,0,1-3.33,3.47,3.21,3.21,0,0,1-2.22-.87,3,3,0,0,1-.95-2.34,3.32,3.32,0,0,1,3.32-3.47,3.17,3.17,0,0,1,2.22.87A3,3,0,0,1,194.78,264.07Zm-.95.11a2.57,2.57,0,0,0-.72-1.95,2.32,2.32,0,0,0-1.66-.69,2.05,2.05,0,0,0-1.55.73,2.73,2.73,0,0,0-.68,1.94,2.6,2.6,0,0,0,.72,2,2.36,2.36,0,0,0,1.66.69,2.06,2.06,0,0,0,1.55-.74A2.76,2.76,0,0,0,193.83,264.18Zm-2.65-4.45a.57.57,0,0,1-.16.4.61.61,0,0,1-.45.17.47.47,0,0,1-.37-.15.53.53,0,0,1,0-.73.61.61,0,0,1,.46-.16.47.47,0,0,1,.36.13A.48.48,0,0,1,191.18,259.73Zm2,0a.57.57,0,0,1-.16.4.61.61,0,0,1-.45.17.47.47,0,0,1-.37-.15.53.53,0,0,1,0-.73.61.61,0,0,1,.45-.16.48.48,0,0,1,.37.13A.48.48,0,0,1,193.19,259.73Z" style="fill:#fff"/><path d="M200.34,265.7q0,1.73-2.52,1.8l0,.33c.7.16,1,.47,1,.94,0,.72-.42,1.09-1.27,1.09l-.08-.45a.58.58,0,0,0,.41-.16.52.52,0,0,0,.16-.37q0-.56-.81-.69l.15-.69a6.8,6.8,0,0,1-1.57-.2l.2-.77a5.65,5.65,0,0,0,1.71.28q1.8,0,1.8-.93a1,1,0,0,0-.46-.81,6.8,6.8,0,0,0-1.24-.6,5.59,5.59,0,0,1-1.35-.73,1.45,1.45,0,0,1-.54-1.15,1.44,1.44,0,0,1,.55-1.18,2.63,2.63,0,0,1,1.73-.51,6.59,6.59,0,0,1,1.73.15l-.13.78a6,6,0,0,0-1.72-.24c-.91,0-1.36.28-1.36.84a.81.81,0,0,0,.39.68,6.77,6.77,0,0,0,1.13.52,5.53,5.53,0,0,1,1.43.75A1.63,1.63,0,0,1,200.34,265.7Z" style="fill:#fff"/><path d="M207.18,267.35H206a6.1,6.1,0,0,0-.61-.85,15.08,15.08,0,0,0-1.28-1.53c-.52-.54-.91-.81-1.16-.81h-.16c0,.76,0,1.82.05,3.19h-1c0-1,.08-2.13.08-3.34s0-2.16-.08-3h1c0,.86-.05,1.74-.05,2.64h.12c.19,0,.68-.42,1.46-1.25a7.2,7.2,0,0,0,1.16-1.39h1.11a5.57,5.57,0,0,1-1.14,1.21,15,15,0,0,1-1.68,1.43v0a7.09,7.09,0,0,1,2,1.94A10.11,10.11,0,0,1,207.18,267.35Z" style="fill:#fff"/><path d="M216.12,263.94a3.49,3.49,0,0,1-1,2.43,3.42,3.42,0,0,1-2.66,1c-.37,0-1,0-1.84-.06.05-1,.08-2.13.08-3.34s0-2.16-.08-3h.58l.65,0h.57a3.88,3.88,0,0,1,2.77.85A2.78,2.78,0,0,1,216.12,263.94Zm-.92.22a2.4,2.4,0,0,0-.75-1.81,3.22,3.22,0,0,0-2.33-.73,4,4,0,0,0-.61.05c0,.76.05,1.54.05,2.34s0,1.77.05,2.67a4.83,4.83,0,0,0,.82.08,2.66,2.66,0,0,0,2.09-.76A2.7,2.7,0,0,0,215.2,264.16Z" style="fill:#fff"/><path d="M223.19,261c0,.61,0,1.19,0,1.72s0,1,0,1.5q0,3.27-2.81,3.27a3.62,3.62,0,0,1-1.26-.2,2,2,0,0,1-.86-.59,2.47,2.47,0,0,1-.49-1,5.94,5.94,0,0,1-.16-1.43c0-.48,0-1,0-1.54s0-1.12,0-1.73h1q-.06,1.86-.06,2.91a8.71,8.71,0,0,0,.09,1.39,2.29,2.29,0,0,0,.32.89,1.21,1.21,0,0,0,.58.5,2.26,2.26,0,0,0,.89.15,2.44,2.44,0,0,0,.93-.15,1.24,1.24,0,0,0,.58-.49,2.45,2.45,0,0,0,.31-.88,7.76,7.76,0,0,0,.1-1.42c0-.34,0-.75,0-1.23s0-1,0-1.67Z" style="fill:#fff"/><path d="M229.92,265.41a1.61,1.61,0,0,1-.87,1.46,4.6,4.6,0,0,1-2.35.51l-1.63,0c.05-1,.08-2.13.08-3.34s0-2.16-.08-3h.64l.75,0h.82c1.47,0,2.21.47,2.21,1.4a1.43,1.43,0,0,1-1.05,1.46v0C229.43,264,229.92,264.54,229.92,265.41Zm-1.32-2.81c0-.67-.5-1-1.49-1a7.71,7.71,0,0,0-1.2.08c0,.23,0,.89,0,2h.57a3.79,3.79,0,0,0,1.53-.22A.84.84,0,0,0,228.6,262.6Zm.43,2.89c0-.8-.78-1.2-2.32-1.2q-.42,0-.75,0c0,.87,0,1.64.06,2.33a5.7,5.7,0,0,0,2.53-.27A.94.94,0,0,0,229,265.49Z" style="fill:#fff"/><path d="M237.09,267.35H236a9.78,9.78,0,0,0-.67-2.06h-3.06a9.56,9.56,0,0,0-.66,2.06h-1.07a29.55,29.55,0,0,1,1.37-3.13,23,23,0,0,0,1.37-3.23h1.23a23.26,23.26,0,0,0,1.31,3.19A22.75,22.75,0,0,1,237.09,267.35Zm-2-2.7a32.46,32.46,0,0,1-1.25-3h-.06c0,.1-.43,1.12-1.29,3Z" style="fill:#fff"/><path d="M245.75,267.35h-1c-.34-.94-.59-1.56-.74-1.86a1.51,1.51,0,0,0-.68-.74,3.09,3.09,0,0,0-1.06-.13h-.81c0,1.05,0,2,.07,2.72h-1c.05-1,.08-2.13.08-3.34s0-2.16-.08-3h.75l.6,0h.84c1.56,0,2.33.49,2.33,1.47a1.76,1.76,0,0,1-1.31,1.73v0a1.56,1.56,0,0,1,.95.74A22.65,22.65,0,0,1,245.75,267.35Zm-1.63-4.58q0-1.17-1.71-1.17a5.81,5.81,0,0,0-1,.07q0,.84,0,2.31H242C243.43,264,244.12,263.58,244.12,262.77Z" style="fill:#fff"/><path d="M251.41,266.61l0,.74H247.1c.05-1,.07-2.13.07-3.34s0-2.16-.07-3h4l0,.73c-1,0-2-.06-3.1-.06q0,.75,0,2,1.42,0,2.52-.06v.73c-.78,0-1.62,0-2.52,0,0,.83,0,1.62.05,2.35C249.23,266.68,250.35,266.66,251.41,266.61Z" style="fill:#fff"/><path d="M256.8,265.7c0,1.21-.92,1.81-2.74,1.81a6.71,6.71,0,0,1-1.77-.21l.18-.77a5.59,5.59,0,0,0,1.7.28q1.8,0,1.8-.93a1,1,0,0,0-.46-.81,6.8,6.8,0,0,0-1.24-.6,5.59,5.59,0,0,1-1.35-.73,1.45,1.45,0,0,1-.54-1.15,1.44,1.44,0,0,1,.55-1.18,2.63,2.63,0,0,1,1.73-.51,6.59,6.59,0,0,1,1.73.15l-.13.78a6,6,0,0,0-1.72-.24c-.91,0-1.36.28-1.36.84a.81.81,0,0,0,.39.68,6.77,6.77,0,0,0,1.13.52,5.53,5.53,0,0,1,1.43.75A1.66,1.66,0,0,1,256.8,265.7Z" style="fill:#fff"/><path d="M262.75,261l0,.69c-.7,0-1.43-.05-2.17-.05,0,.62,0,1.42,0,2.38s0,2.17,0,3.34h-1c0-1.11.06-2.23.06-3.34,0-.95,0-1.74,0-2.38-.53,0-1.26,0-2.21.06l0-.7Z" style="fill:#fff"/><path d="M269.29,267.35h-1.12a9.78,9.78,0,0,0-.67-2.06h-3.07a9.89,9.89,0,0,0-.65,2.06H262.7a32.4,32.4,0,0,1,1.37-3.13,21.62,21.62,0,0,0,1.37-3.23h1.24a22.37,22.37,0,0,0,1.3,3.19A23.69,23.69,0,0,1,269.29,267.35Zm-2-2.7a29.39,29.39,0,0,1-1.25-3H266c0,.1-.43,1.12-1.29,3Z" style="fill:#fff"/><path d="M275.79,261c0,.61,0,1.19,0,1.72s0,1,0,1.5c0,2.18-.93,3.27-2.81,3.27a3.56,3.56,0,0,1-1.25-.2,1.87,1.87,0,0,1-.86-.59,2.48,2.48,0,0,1-.5-1,6,6,0,0,1-.15-1.43c0-.48,0-1,0-1.54s0-1.12,0-1.73h1q-.06,1.86-.06,2.91a8.71,8.71,0,0,0,.09,1.39,2.46,2.46,0,0,0,.32.89,1.21,1.21,0,0,0,.58.5,2.3,2.3,0,0,0,.89.15,2.44,2.44,0,0,0,.93-.15,1.19,1.19,0,0,0,.58-.49,2.45,2.45,0,0,0,.32-.88,9,9,0,0,0,.09-1.42c0-.34,0-.75,0-1.23s0-1-.05-1.67Z" style="fill:#fff"/><path d="M282.9,267.35h-1c-.34-.94-.59-1.56-.74-1.86a1.55,1.55,0,0,0-.68-.74,3.16,3.16,0,0,0-1.07-.13h-.8c0,1.05,0,2,.06,2.72h-1c.05-1,.08-2.13.08-3.34s0-2.16-.08-3h.75l.6,0h.84c1.55,0,2.33.49,2.33,1.47a1.77,1.77,0,0,1-1.31,1.73v0a1.59,1.59,0,0,1,.95.74A21.3,21.3,0,0,1,282.9,267.35Zm-1.62-4.58q0-1.17-1.71-1.17a6,6,0,0,0-1,.07c0,.56,0,1.33,0,2.31h.61C280.58,264,281.28,263.58,281.28,262.77Z" style="fill:#fff"/><path d="M289.9,267.35h-1.12a9.78,9.78,0,0,0-.67-2.06H285a9.89,9.89,0,0,0-.65,2.06h-1.08a32.4,32.4,0,0,1,1.37-3.13,21.62,21.62,0,0,0,1.37-3.23h1.24a22.37,22.37,0,0,0,1.3,3.19A23.69,23.69,0,0,1,289.9,267.35Zm-2-2.7a29.39,29.39,0,0,1-1.25-3h-.06c0,.1-.43,1.12-1.29,3Z" style="fill:#fff"/><path d="M296.29,267.35h-.74c0-.06-.58-.84-1.75-2.34a21,21,0,0,1-2.07-3h-.06c.07.78.1,1.46.1,2,0,1.09,0,2.19.08,3.31H291c.06-1.06.09-2.18.09-3.34s0-2.16-.09-3h1a18.73,18.73,0,0,0,1.6,2.23,14.65,14.65,0,0,1,1.91,2.86h.06c-.06-.8-.09-1.47-.09-2,0-1.2,0-2.22-.08-3.06h.91c-.06.86-.09,1.87-.09,3S296.23,266.29,296.29,267.35Z" style="fill:#fff"/><path d="M302.71,261l0,.69c-.7,0-1.42-.05-2.17-.05,0,.62,0,1.42,0,2.38s0,2.17.05,3.34h-1c.05-1.11.07-2.23.07-3.34,0-.95,0-1.74,0-2.38-.52,0-1.26,0-2.21.06l0-.7Z" style="fill:#fff"/><path d="M168,264.17c0-.3-.48-.54-1.08-.54" style="fill:#fff"/><path d="M145,216.47c0,27.16,13.93,49.14,31.14,49.14" style="fill:#fff"/><ellipse cx="149.39" cy="250.08" rx="2.43" ry="3.14" transform="translate(-138.09 297.12) rotate(-68.44)" style="fill:#fff"/><path d="M366.25,248.32c-20.19,18.17-45.84,22.52-57.36,9.72" style="fill:#fff"/><path d="M179.92,248.68c-1.52-.49-.74-.29,1.58.48,28.78,9.57,62.6,6.13,90.8.67a141.35,141.35,0,0,1,27.86-2.75,150.91,150.91,0,0,0-29.6,3.68c-28.21,6.15-64.35,8.52-91.45-2.33-.47-.19.43.08,0,0Z" style="fill:#fff;stroke:#fff;stroke-miterlimit:10"/></svg>