<svg width="1440" height="363" viewBox="0 0 1440 363" fill="none" xmlns="http://www.w3.org/2000/svg">
<path d="M229.379 210.603C219.486 207.356 224.562 208.682 239.728 213.851C427.052 277.207 647.18 254.409 830.664 218.291C890.372 206.14 951.111 200.013 1012 200C947.03 200.566 882.34 208.749 819.209 224.388C636.376 270.779 401.082 286.088 223.911 209.013C220.852 207.687 226.71 209.477 223.911 209.013L229.379 210.603Z" fill="white" stroke="white" stroke-miterlimit="10"/>
<path d="M234.793 171.924C205.761 173.226 184.996 166.652 172.303 152.396C157.006 163.202 145.875 168.67 138.714 168.67C136.958 168.72 135.225 168.261 133.724 167.348C132.223 166.436 131.017 165.109 130.252 163.527C128.436 160.1 127.497 156.276 127.518 152.396C128.597 140.903 131.868 129.723 137.152 119.459C144.833 103.186 151.798 95.1142 158.242 95.1142C161.562 95.1142 164.036 99.866 165.793 109.435C167.547 119.539 170.249 129.455 173.865 139.052C179.593 133.454 186.753 125.882 195.346 116.335C203.938 106.766 213.832 95.2443 225.159 81.7048C253.236 47.8127 271.874 29.2828 281.074 26.1149C284.079 25.0194 287.249 24.447 290.447 24.4225C293.402 24.284 296.336 24.9835 298.91 26.4404C299.811 26.8743 300.584 27.534 301.154 28.3553C301.724 29.1766 302.072 30.1315 302.164 31.1271C302.164 33.796 299.626 35.4233 294.613 35.879C289.828 38.3978 285.331 41.4317 281.204 44.927C275.932 49.2231 270.399 54.1702 264.54 59.6381C258.682 65.1059 253.344 70.5738 248.267 75.8464C243.19 81.119 239.219 85.8057 236.094 89.5812C219.997 110.802 201.275 129.897 180.374 146.408L178.812 147.645C183.8 154.693 190.782 160.088 198.861 163.137C207.218 166.096 216.034 167.55 224.898 167.433C240.177 167.545 255.385 165.35 270.008 160.924C284.087 156.794 297.313 150.181 309.064 141.396C320.566 132.761 330.255 121.945 337.575 109.565C345.103 97.8885 349.331 84.393 349.813 70.5088C349.816 62.1532 347.759 53.9256 343.824 46.5543C339.873 39.022 334.424 32.3766 327.811 27.0262C321.363 21.7461 313.72 18.1256 305.549 16.4811C295.685 14.5529 285.657 13.5936 275.606 13.617C249.983 13.3652 224.665 19.1873 201.725 30.6064C177.966 42.5185 166.054 55.9278 166.054 70.7041C165.983 74.5072 167.382 78.1911 169.959 80.9889C171.2 82.4991 172.699 83.7772 174.386 84.7642H172.823C168.044 84.0615 163.641 81.7682 160.325 78.2548C157.063 75.0352 155.194 70.665 155.118 66.0824C155.136 57.7032 158.136 49.604 163.58 43.2346C170.467 35.3753 178.826 28.9402 188.186 24.2923C211.82 12.4761 237.994 6.64226 264.41 7.30288C270.919 7.30288 277.429 7.6283 283.938 8.27924C290.492 8.90072 297.01 9.85669 303.466 11.1434C314.452 13.2444 324.902 17.5394 334.19 23.7715C343.073 29.716 350.612 37.4547 356.322 46.4892C361.789 55.1357 364.679 65.161 364.654 75.3908C364.282 88.5299 360.32 101.316 353.198 112.364C345.718 125.15 335.653 136.235 323.645 144.911C311.25 153.653 297.476 160.254 282.897 164.439C267.226 168.88 251.072 171.394 234.793 171.924ZM140.016 164.048C150.018 159.314 159.168 152.958 167.095 145.236C162.916 139.212 159.587 132.641 157.201 125.708C155.892 120.461 155.107 115.097 154.858 109.695C142.88 125.448 136.892 139.204 136.892 150.964C136.744 155.527 137.823 160.045 140.016 164.048Z" fill="white"/>
<path d="M380.732 159.296C376.285 159.179 371.967 157.778 368.3 155.261C366.501 154.275 364.939 152.908 363.725 151.255C362.51 149.602 361.672 147.703 361.269 145.692C359.49 133.454 367.887 118.895 386.461 102.014C404.882 85.1548 421.416 76.6926 436.192 76.6926C439.519 76.4929 442.818 77.4092 445.566 79.2963C446.873 80.5396 447.818 82.1145 448.299 83.8529C448.885 85.7406 449.406 86.717 449.732 86.717C450.334 86.827 450.952 86.827 451.554 86.717C452.122 86.444 452.747 86.3102 453.377 86.3265C455.409 86.3037 457.371 87.0743 458.845 88.4746C460.094 89.4497 461.005 90.7933 461.448 92.3151C461.448 92.6405 456.046 100.517 444.784 115.944C433.523 131.371 428.381 141.331 429.422 146.733C430.269 150.379 432.221 152.201 435.151 152.201C444.22 152.201 460.711 138.51 484.622 111.127C484.803 110.874 485.036 110.662 485.306 110.505C485.575 110.348 485.874 110.249 486.184 110.216C487.03 110.216 487.486 110.737 487.486 111.843C487.256 113.663 486.432 115.356 485.142 116.66C463.054 143.869 446.13 157.474 434.369 157.474C432.865 157.475 431.371 157.233 429.943 156.758C426.52 155.839 423.515 153.774 421.43 150.907C419.345 148.04 418.306 144.545 418.487 141.005C418.513 138.261 418.862 135.53 419.528 132.868L403.385 147.189C399.532 150.993 395.147 154.216 390.366 156.758C387.375 158.289 384.089 159.155 380.732 159.296ZM378.454 154.024C388.478 154.024 402.213 143.934 419.528 123.755L447.128 88.8651C446.426 87.7926 445.456 86.9221 444.315 86.3398C443.173 85.7575 441.899 85.4837 440.618 85.5454C430.008 85.5454 415.753 93.3566 397.657 108.914C379.561 124.471 370.513 137.946 372.465 147.97C373.051 152.136 375.134 154.024 378.454 154.024Z" fill="white"/>
<path d="M476.615 207.075C473.863 207.079 471.142 206.501 468.629 205.379C466.116 204.257 463.869 202.617 462.034 200.566C460.08 198.629 458.541 196.314 457.511 193.762C456.481 191.21 455.983 188.475 456.046 185.724C458.67 188.671 461.452 191.474 464.378 194.122C467.852 197.614 472.481 199.72 477.396 200.045C487.291 200.045 497.944 192.82 509.357 178.369C513.793 172.647 517.921 166.693 521.725 160.533C526.271 153.311 530.316 145.786 533.832 138.011L543.727 116.009L505.517 143.479C493.67 151.941 484.231 156.107 477.136 156.107C475.432 156.196 473.729 155.903 472.152 155.25C470.576 154.597 469.165 153.6 468.023 152.331C465.945 150.224 464.737 147.412 464.638 144.455C464.638 137.62 471.147 126.359 484.166 110.737C497.185 95.1141 506.623 87.1076 513.002 87.1076C518.405 87.1076 521.074 88.9302 521.074 92.6405C521.074 94.0726 513.371 102.339 497.966 117.441C482.56 132.543 474.923 142.654 475.053 147.775C475.053 149.858 476.485 150.899 479.479 150.899C484.991 150.899 497.033 144.39 515.606 131.371C523.287 125.838 530.057 120.696 535.915 116.139C541.774 111.583 546.786 107.352 550.757 103.706L554.923 99.0197C556.29 97.5225 557.592 95.9603 558.828 94.3981C560.022 92.8818 561.518 91.6301 563.222 90.7225C564.925 89.8148 566.798 89.271 568.723 89.1255C573.409 89.1255 575.753 90.883 575.753 94.3981C572.486 99.9017 568.831 105.166 564.817 110.151C560.976 115.554 558.308 119.719 555.704 122.649C554.252 124.428 552.946 126.322 551.798 128.312C546.461 137.815 538.215 151.724 527.063 170.037C510.225 194.729 493.409 207.075 476.615 207.075Z" fill="white"/>
<path d="M576.208 160.728C572.716 160.835 569.315 159.601 566.705 157.278C565.262 155.598 564.182 153.638 563.532 151.521C562.883 149.404 562.677 147.176 562.929 144.976C563.07 140.999 563.907 137.077 565.403 133.389C567.216 128.88 569.393 124.526 571.912 120.37C574.451 115.879 576.924 111.908 579.333 108.393C589.032 93.9424 597.038 86.5869 603.287 86.4567C605.307 86.5892 607.269 87.1909 609.016 88.2142C611.229 89.4509 612.4 90.7528 612.4 92.1849L592.872 115.554C579.854 131.002 573.344 141.982 573.344 148.491C573.344 153.633 575.492 156.172 579.854 156.172C583.647 155.876 587.333 154.766 590.659 152.917C595.494 150.523 600.15 147.782 604.589 144.715C609.406 141.331 614.093 137.75 618.519 133.975C622.353 130.706 625.963 127.182 629.325 123.43C630.596 121.756 632.135 120.304 633.881 119.134C634.623 118.588 635.463 118.19 636.355 117.962C637.006 117.962 637.396 118.418 637.396 119.394C636.798 121.197 635.771 122.828 634.402 124.146C631.844 127.111 629.104 129.915 626.2 132.543C622.034 136.318 617.413 140.484 612.4 144.911C607.399 149.339 601.893 153.162 595.997 156.302C589.871 159.4 583.07 160.922 576.208 160.728Z" fill="white"/>
<path d="M692.01 158.58C690.186 158.77 688.343 158.533 686.626 157.889C684.909 157.246 683.365 156.212 682.116 154.87C680.16 152.218 679.151 148.986 679.252 145.692C679.761 135.015 683.381 124.72 689.666 116.074L706.33 91.2735C693.636 99.9974 681.859 109.986 671.18 121.086C668.055 124.276 664.671 128.051 660.635 132.348C656.599 136.644 652.433 141.526 647.616 147.124C641.432 154.61 637.657 158.32 636.485 158.32C635.326 158.343 634.178 158.089 633.136 157.58C632.095 157.071 631.19 156.32 630.496 155.391C629.143 153.896 628.319 151.997 628.153 149.988C628.322 147.603 628.759 145.245 629.455 142.958C630.177 139.862 631.224 136.851 632.579 133.975C633.751 131.306 635.053 128.637 636.355 125.968C637.657 123.3 638.893 120.761 640.13 118.222L624.508 133.259L621.383 136.123C620.311 137.378 618.84 138.228 617.217 138.532C616.306 138.532 615.915 137.946 615.915 136.839C615.958 136.383 616.091 135.941 616.306 135.537C616.727 134.756 617.303 134.07 617.998 133.519L626.07 125.903C628.804 123.169 631.668 120.045 634.662 116.595L641.693 108.588C644.752 105.008 648.202 101.103 651.912 97.0018C655.622 92.9009 659.203 88.9953 662.457 85.5454C663.194 84.5464 664.182 83.7603 665.322 83.267C665.986 82.9776 666.687 82.7806 667.404 82.6812C672.091 82.6812 674.435 84.3086 674.435 87.6935C674.413 88.6978 674.145 89.6814 673.653 90.5575C658.031 110.259 648.679 125.296 645.598 135.667C665.734 117.181 681.899 103.294 694.093 94.0075C706.287 84.7209 714.966 80.0558 720.13 80.0124C722.37 79.8563 724.613 80.2824 726.64 81.2492C727.407 81.6999 728.025 82.3655 728.418 83.1636C728.812 83.9618 728.963 84.8577 728.853 85.7406C728.97 86.3863 728.97 87.0478 728.853 87.6935C725.547 92.3375 721.982 96.7925 718.177 101.038C714.207 105.529 710.692 109.565 707.632 113.21C704.573 116.855 702.099 119.719 700.212 122.779C697.406 126.667 695.047 130.86 693.181 135.277C691.791 138.423 690.996 141.8 690.838 145.236C690.879 146.595 691.054 147.947 691.359 149.272C691.472 149.997 691.859 150.652 692.44 151.1C693.022 151.548 693.753 151.756 694.483 151.68C701.49 150.266 707.975 146.957 713.23 142.112C717.201 138.922 720.977 135.602 724.426 132.413C727.876 129.223 730.936 125.903 734.321 122.779C734.972 122.128 736.143 120.891 737.705 119.069C739.268 117.246 740.179 116.335 740.57 116.335C740.96 116.335 741.611 116.985 741.611 118.222C741.447 119.376 741.048 120.483 740.439 121.477C739.809 122.755 738.974 123.92 737.966 124.927C736.013 127.01 733.214 129.874 729.504 133.519C725.793 137.165 721.627 140.94 717.006 144.715C712.76 148.286 708.28 151.57 703.596 154.544C700.176 156.924 696.168 158.32 692.01 158.58Z" fill="white"/>
<path d="M739.919 160.728C736.413 160.748 733.034 159.419 730.48 157.018C729.038 155.338 727.958 153.378 727.308 151.261C726.658 149.144 726.453 146.916 726.705 144.715C726.846 140.738 727.683 136.817 729.178 133.129C730.991 128.62 733.168 124.266 735.688 120.11C737.94 115.985 740.418 111.987 743.108 108.133C752.807 93.6821 760.814 86.3265 767.063 86.1963C769.083 86.3288 771.044 86.9306 772.791 87.9538C775.004 89.1906 776.176 90.4925 776.176 91.9245L756.648 115.293C743.629 130.742 737.12 141.721 737.12 148.23C737.12 153.373 739.268 155.912 743.629 155.912C747.421 155.607 751.105 154.498 754.435 152.657C759.27 150.263 763.925 147.521 768.365 144.455C773.182 141.07 777.868 137.49 782.295 133.715C786.109 130.446 789.697 126.923 793.035 123.169C794.323 121.51 795.86 120.061 797.592 118.873C798.34 118.339 799.178 117.942 800.065 117.702C800.781 117.702 801.107 118.157 801.107 119.134C800.537 120.95 799.505 122.587 798.113 123.886C795.589 126.883 792.848 129.689 789.911 132.283C785.81 136.058 781.188 140.224 776.176 144.65C771.174 149.078 765.668 152.902 759.772 156.042C753.648 159.233 746.824 160.844 739.919 160.728Z" fill="white"/>
<path d="M855.72 158.58C853.895 158.78 852.049 158.548 850.331 157.904C848.612 157.259 847.069 156.22 845.826 154.87C843.87 152.218 842.862 148.986 842.962 145.692C843.441 135.009 847.064 124.706 853.377 116.074L870.041 91.2735C857.346 99.9974 845.569 109.986 834.89 121.086C831.766 124.276 828.381 128.051 824.345 132.348C820.309 136.644 816.143 141.526 811.326 147.124C804.817 154.61 801.367 158.32 800.13 158.32C798.972 158.338 797.826 158.082 796.785 157.573C795.744 157.064 794.839 156.316 794.142 155.391C792.788 153.896 791.965 151.997 791.798 149.988C792.002 147.608 792.438 145.253 793.1 142.958C793.881 139.879 794.927 136.874 796.225 133.975C797.461 131.306 798.698 128.637 800 125.968C801.302 123.3 802.604 120.761 803.775 118.222L788.153 133.259L785.094 136.123C784.014 137.37 782.547 138.218 780.928 138.532C780.016 138.532 779.626 137.946 779.626 136.839C779.635 136.378 779.77 135.928 780.016 135.537C780.437 134.775 780.988 134.092 781.643 133.519C784.312 131.111 786.981 128.572 789.78 125.903C792.579 123.235 795.378 120.045 798.308 116.595L805.338 108.588C808.462 105.008 811.847 101.103 815.622 97.0018C819.398 92.9009 822.913 88.9953 826.168 85.5454C826.905 84.5464 827.893 83.7603 829.032 83.267C829.696 82.9776 830.397 82.7806 831.115 82.6812C835.801 82.6812 838.145 84.3086 838.145 87.6935C838.124 88.6978 837.855 89.6814 837.364 90.5575C821.741 110.259 812.368 125.296 809.243 135.667C829.336 117.181 845.522 103.294 857.803 94.0075C870.084 84.7209 878.763 80.0558 883.84 80.0124C886.081 79.8563 888.323 80.2824 890.35 81.2492C891.106 81.712 891.715 82.3796 892.107 83.1746C892.498 83.9696 892.657 84.8593 892.563 85.7406C892.649 86.3887 892.649 87.0454 892.563 87.6935C889.257 92.3375 885.693 96.7925 881.888 101.038C877.917 105.529 874.337 109.565 871.343 113.21C868.348 116.855 865.81 119.719 863.922 122.779C861.116 126.667 858.758 130.86 856.892 135.277C855.501 138.423 854.707 141.8 854.548 145.236C854.589 146.595 854.764 147.947 855.069 149.272C855.167 150.005 855.55 150.669 856.135 151.12C856.72 151.571 857.46 151.773 858.194 151.68C865.2 150.266 871.685 146.957 876.941 142.112C880.911 138.922 884.622 135.602 888.137 132.413C891.652 129.223 894.646 125.903 898.031 122.779C898.682 122.128 899.854 120.891 901.416 119.069C902.978 117.246 903.889 116.335 904.28 116.335C904.671 116.335 905.321 116.985 905.321 118.222C905.157 119.376 904.758 120.483 904.15 121.477C903.519 122.755 902.684 123.92 901.676 124.927C899.723 127.01 896.924 129.874 893.214 133.519C889.504 137.165 885.272 140.94 880.716 144.715C876.47 148.286 871.99 151.57 867.307 154.544C863.886 156.924 859.879 158.32 855.72 158.58Z" fill="white"/>
<path d="M1033.23 218.727C1028.74 218.681 1024.31 217.705 1020.21 215.863C1016 214.114 1012.19 211.522 1009.02 208.247C1007.61 206.92 1006.49 205.327 1005.71 203.561C1004.92 201.796 1004.5 199.893 1004.46 197.962C1004.46 194.642 1006.28 192.95 1009.93 192.95H1011.88L1013.83 193.34C1015.26 198.684 1017.45 203.794 1020.34 208.507C1022.08 210.372 1024.24 211.79 1026.64 212.64C1029.05 213.491 1031.62 213.747 1034.14 213.389C1044.88 213.389 1056.66 206.88 1069.36 193.08C1085.75 174.577 1100.27 154.495 1112.71 133.129L1159.58 56.5136L1132.5 83.0068C1121.35 93.8123 1112.15 102.643 1104.9 109.5C1097.61 116.335 1092.27 121.347 1088.76 124.536C1082.25 130.265 1076.39 135.602 1070.27 140.549C1064.72 145.175 1058.67 149.17 1052.24 152.462C1046.57 155.43 1040.28 156.992 1033.88 157.018C1023.99 157.018 1019.04 151.68 1019.04 141.005C1019.93 126.155 1026.23 112.146 1036.75 101.624L1049.76 87.3029L1062.78 72.722C1073.99 60.1678 1084.32 46.8572 1093.7 32.8846C1095.84 29.5183 1097.71 25.9929 1099.3 22.3395C1100.49 19.8085 1101.15 17.0628 1101.25 14.268C1101.3 12.6212 1100.86 10.9978 1099.97 9.60605C1099.09 8.21428 1097.82 7.11754 1096.31 6.45666C1091.25 4.50553 1085.83 3.66209 1080.42 3.98317C1062.07 3.98317 1036.66 14.1594 1004.2 34.512C996.353 39.3075 989.1 45.0099 982.588 51.5014C976.178 57.7211 970.658 64.7964 966.184 72.5267C962.184 78.904 959.939 86.2241 959.675 93.7472C959.419 96.6557 959.92 99.5809 961.129 102.239C962.338 104.896 964.214 107.196 966.575 108.914C971.651 112.173 977.6 113.808 983.629 113.601C994.249 113.001 1004.47 109.338 1013.05 103.056C1019.94 98.5373 1027.07 94.3872 1034.4 90.6227C1032.67 96.5679 1025.81 103.077 1013.83 110.151C1002.69 117.04 989.951 120.92 976.859 121.412C973 121.664 969.135 121.019 965.567 119.529C961.998 118.038 958.823 115.742 956.29 112.82C951.637 107.185 949.144 100.077 949.26 92.7708C949.26 71.0729 966.618 48.9411 1001.33 26.3753C1009.25 21.2025 1017.67 16.8409 1026.46 13.3566C1036.23 9.37405 1046.28 6.13198 1056.53 3.65768C1065.54 1.39434 1074.78 0.171291 1084.07 0.0124585C1090.8 -0.1474 1097.48 1.23296 1103.6 4.04823C1106.14 5.12406 1108.29 6.94328 1109.78 9.26686C1111.27 11.5904 1112.02 14.3096 1111.93 17.0669C1111.93 24.3574 1106.79 35.2931 1096.57 49.6137C1092.27 55.7976 1086.28 63.4787 1078.73 72.5267C1071.18 81.5747 1062.07 92.0548 1051.33 103.837C1046.45 109.255 1042.41 115.377 1039.35 121.998C1036.26 127.408 1034.39 133.429 1033.88 139.638C1033.88 143.978 1035.7 146.148 1039.35 146.148C1045.54 145.177 1051.37 142.621 1056.27 138.727C1079.44 123.294 1101.22 105.87 1121.37 86.652C1137.58 72.063 1152.48 56.0751 1165.89 38.8733C1168.29 34.9047 1171.59 31.5608 1175.52 29.1165C1179.46 26.6723 1183.92 25.1974 1188.54 24.8131C1191.28 24.8131 1192.71 25.5942 1192.71 27.2215C1192.75 27.5242 1192.75 27.8301 1192.71 28.1328L1192.32 29.1093C1183.08 43.8638 1171.06 62.8928 1156.26 86.1963C1141.46 109.5 1123.71 136.948 1103.01 168.54C1097.17 177.31 1090.45 185.467 1082.96 192.885C1075.81 200.201 1067.66 206.469 1058.75 211.501C1051.02 216.099 1042.22 218.591 1033.23 218.727Z" fill="white"/>
<path d="M1188.61 161.184C1183.18 161.236 1177.88 159.523 1173.51 156.302C1171.41 154.856 1169.72 152.905 1168.58 150.629C1167.44 148.353 1166.9 145.826 1167 143.283C1167 132.044 1174.55 119.155 1189.65 104.618C1204.75 90.0802 1218.53 82.7681 1230.98 82.6813C1234.49 82.5206 1237.94 83.5787 1240.75 85.6755C1241.92 86.4853 1242.87 87.5656 1243.53 88.8239C1244.18 90.0823 1244.53 91.4812 1244.52 92.9009C1244.52 101.819 1236.84 110.606 1221.35 118.938C1210.95 125.539 1199.07 129.474 1186.79 130.395C1185.56 130.429 1184.33 130.276 1183.14 129.939C1180.61 134.026 1179.26 138.735 1179.24 143.544C1179 145.281 1179.18 147.051 1179.76 148.705C1180.34 150.36 1181.31 151.853 1182.58 153.061C1183.85 154.269 1185.39 155.157 1187.07 155.653C1188.75 156.148 1190.53 156.237 1192.25 155.912C1200.91 155.912 1212.11 150.639 1225.78 139.964C1235.73 132.747 1244.82 124.403 1252.86 115.098C1254.42 113.21 1255.79 112.234 1257.02 112.234C1258.26 112.234 1258.58 112.689 1258.58 113.666C1258.31 115.208 1257.59 116.635 1256.5 117.767C1251.7 123.544 1246.48 128.962 1240.88 133.975C1235.25 138.97 1229.25 143.519 1222.91 147.58C1213.03 155.329 1201.12 160.053 1188.61 161.184ZM1190.17 125.383C1199.36 124.536 1208.19 121.428 1215.88 116.335C1219.47 114.042 1222.91 111.52 1226.17 108.784C1229.28 106.316 1232.08 103.473 1234.5 100.322C1236.36 98.19 1237.5 95.5241 1237.75 92.7056C1237.75 90.6227 1235.93 89.5812 1232.29 89.5812C1224.1 90.9281 1216.49 94.6646 1210.42 100.322C1205.86 103.892 1201.52 107.717 1197.4 111.778C1193.39 115.715 1189.83 120.081 1186.79 124.797C1187.88 125.169 1189.02 125.367 1190.17 125.383Z" fill="white"/>
<path d="M1295.3 159.296C1292.5 159.642 1289.66 159.34 1287 158.415C1284.33 157.489 1281.92 155.965 1279.93 153.959C1276.96 149.75 1275.49 144.657 1275.77 139.508C1276.15 131.162 1278.37 123.004 1282.28 115.619C1283.85 112.186 1285.67 108.879 1287.75 105.724C1289.57 102.847 1291.57 100.086 1293.73 97.4575C1293.13 97.543 1292.52 97.543 1291.91 97.4575H1290.35C1286.18 97.4575 1282.67 94.7236 1279.93 89.3208L1260.41 112.234C1250.71 124.471 1244.72 130.981 1242.18 130.981C1241.33 130.981 1240.88 130.655 1240.88 130.004C1241.03 128.866 1241.48 127.788 1242.18 126.88C1243.06 125.499 1244.11 124.231 1245.31 123.104C1251.81 116.074 1258.32 109.174 1263.53 102.274C1268.68 95.9804 1273.28 89.2505 1277.27 82.1605C1281.24 68.3606 1286.25 61.3956 1292.37 61.3956C1296.34 61.3956 1298.36 63.0881 1298.36 66.4078C1297.56 71.0075 1295.27 75.2172 1291.85 78.385C1287.68 83.2671 1285.34 85.8708 1285.34 86.001C1285.34 89.3208 1288.01 91.0132 1293.41 91.0132C1297.09 90.8513 1300.67 89.7776 1303.82 87.8887L1310.33 84.1133C1310.85 83.9838 1311.38 83.9838 1311.9 84.1133C1312.93 84.1058 1313.95 84.3166 1314.89 84.7317C1315.83 85.1468 1316.67 85.7569 1317.36 86.5217C1318.93 88.084 1319.45 89.5161 1318.93 90.8179L1301.55 111.453C1290.42 124.471 1284.88 135.016 1284.88 142.958C1284.88 150.899 1288.66 153.698 1296.34 153.698C1302.19 153.542 1307.93 152.074 1313.13 149.402C1319.27 146.459 1325.09 142.905 1330.51 138.792C1335.58 135.093 1340.32 130.977 1344.7 126.489L1351.21 119.98L1352.51 118.808C1352.86 118.438 1353.32 118.188 1353.82 118.092C1355.05 118.092 1355.64 118.613 1355.64 119.785C1355.58 120.356 1355.4 120.91 1355.12 121.412C1354.67 122.402 1354.05 123.305 1353.3 124.081L1344.96 132.673C1340.43 137.26 1335.51 141.441 1330.25 145.171C1324.67 149.263 1318.67 152.754 1312.35 155.586C1306.98 157.975 1301.18 159.238 1295.3 159.296Z" fill="white"/>
<path d="M1354.08 160.728C1350.59 160.829 1347.19 159.595 1344.57 157.278C1343.14 155.59 1342.07 153.629 1341.42 151.514C1340.77 149.4 1340.56 147.175 1340.8 144.976C1340.94 140.999 1341.78 137.077 1343.27 133.389C1345.14 128.904 1347.31 124.554 1349.78 120.37C1352.32 115.879 1354.79 111.908 1357.2 108.393C1366.97 93.9424 1374.91 86.5868 1381.16 86.4566C1383.18 86.5891 1385.14 87.1909 1386.88 88.2141C1389.16 89.4509 1390.27 90.7528 1390.27 92.1848L1370.74 115.553C1357.72 131.002 1351.21 141.981 1351.21 148.491C1351.21 153.633 1353.43 156.172 1357.72 156.172C1361.52 155.876 1365.2 154.765 1368.53 152.917C1373.36 150.523 1378.02 147.782 1382.46 144.715C1387.28 141.37 1391.93 137.785 1396.39 133.975C1400.22 130.705 1403.83 127.182 1407.19 123.43C1408.48 121.771 1410.02 120.321 1411.75 119.134C1412.42 118.626 1413.17 118.23 1413.96 117.962C1414.61 117.962 1415 118.418 1415 119.394C1414.41 121.197 1413.38 122.828 1412.01 124.146C1409.45 127.111 1406.71 129.915 1403.81 132.543C1399.64 136.318 1395.02 140.484 1390.01 144.911C1385.03 149.368 1379.52 153.194 1373.6 156.302C1367.56 159.366 1360.85 160.887 1354.08 160.728ZM1389.49 71.6804C1388.25 71.6804 1387.08 70.8342 1385.84 69.1417C1384.78 67.9205 1384.15 66.3918 1384.02 64.7805C1384.02 62.372 1386.62 59.5079 1391.83 56.123C1395.34 53.4677 1399.46 51.7433 1403.81 51.1108C1404.06 51.0348 1404.33 51.0348 1404.59 51.1108C1403.25 52.4301 1402.03 53.8681 1400.94 55.407L1396.52 64.9757C1394.78 69.4455 1392.44 71.6804 1389.49 71.6804Z" fill="white"/>
<path d="M277.754 346.375H266.428C264.976 342.745 263.002 339.347 260.57 336.286C256.469 330.167 253.474 327.108 251.782 327.108H250.74C250.74 331.99 250.74 338.369 251.131 346.636H241.367C241.367 340.126 241.758 333.031 241.758 325.025C241.758 317.018 241.758 310.704 241.367 305.497H251.131C251.131 311.355 250.74 316.823 250.74 321.965H251.457C252.498 321.965 255.037 319.362 259.203 314.154C261.58 311.552 263.595 308.639 265.191 305.497H275.476C273.735 308.448 271.538 311.106 268.967 313.373C266.112 316.724 262.904 319.758 259.398 322.421V322.877C263.891 326.299 267.672 330.567 270.529 335.44C273.355 338.791 275.78 342.461 277.754 346.375Z" fill="white"/>
<path d="M324.947 324.959C325.009 327.948 324.466 330.919 323.349 333.692C322.231 336.465 320.564 338.983 318.447 341.093C316.33 343.204 313.808 344.864 311.031 345.974C308.255 347.083 305.283 347.618 302.295 347.547C299.479 347.628 296.675 347.145 294.049 346.128C291.422 345.111 289.025 343.579 286.998 341.623C284.897 339.745 283.227 337.435 282.103 334.851C280.98 332.266 280.429 329.469 280.488 326.652C280.407 323.658 280.942 320.68 282.062 317.903C283.182 315.125 284.862 312.608 286.998 310.509C289.109 308.389 291.628 306.719 294.402 305.6C297.177 304.482 300.15 303.937 303.141 303.999C308.815 303.848 314.317 305.955 318.438 309.858C320.539 311.764 322.207 314.098 323.33 316.703C324.452 319.308 325.004 322.123 324.947 324.959ZM315.378 325.871C315.544 321.931 314.219 318.073 311.668 315.065C310.53 313.754 309.118 312.708 307.533 311.999C305.947 311.291 304.226 310.938 302.49 310.964C300.836 310.964 299.203 311.338 297.715 312.06C296.227 312.782 294.921 313.831 293.897 315.13C291.559 318.186 290.292 321.926 290.292 325.773C290.292 329.621 291.559 333.361 293.897 336.416C295.039 337.724 296.451 338.768 298.036 339.476C299.62 340.184 301.34 340.539 303.076 340.517C304.73 340.518 306.362 340.143 307.851 339.421C309.339 338.7 310.644 337.65 311.668 336.351C314.143 333.428 315.462 329.7 315.378 325.871ZM301.448 296.579C301.448 297.185 301.328 297.785 301.093 298.344C300.858 298.903 300.514 299.409 300.081 299.833C299.566 300.308 298.96 300.673 298.3 300.908C297.641 301.143 296.94 301.243 296.241 301.2C295.657 301.232 295.074 301.145 294.525 300.943C293.977 300.742 293.475 300.431 293.051 300.029C292.672 299.642 292.374 299.184 292.172 298.681C291.971 298.179 291.872 297.641 291.88 297.099C291.877 296.503 291.997 295.911 292.232 295.363C292.467 294.814 292.813 294.32 293.247 293.91C294.319 293.011 295.689 292.547 297.087 292.608C297.681 292.571 298.276 292.656 298.836 292.857C299.395 293.059 299.908 293.373 300.342 293.78C301.064 294.531 301.461 295.537 301.448 296.579ZM315.118 296.579C315.118 297.185 314.997 297.785 314.763 298.344C314.528 298.903 314.184 299.409 313.751 299.833C313.238 300.311 312.632 300.679 311.972 300.914C311.312 301.149 310.61 301.246 309.911 301.2C309.326 301.24 308.74 301.157 308.191 300.955C307.641 300.753 307.14 300.437 306.721 300.029C306.342 299.642 306.043 299.184 305.842 298.681C305.641 298.179 305.541 297.641 305.549 297.099C305.552 296.513 305.674 295.933 305.909 295.396C306.144 294.858 306.487 294.375 306.916 293.975C307.445 293.502 308.063 293.137 308.733 292.903C309.403 292.668 310.113 292.568 310.822 292.608C311.405 292.576 311.989 292.664 312.537 292.865C313.086 293.067 313.587 293.378 314.011 293.78C314.733 294.531 315.131 295.537 315.118 296.579Z" fill="white"/>
<path d="M362.05 335.114C362.05 342.86 356.387 346.961 345.061 347.482L344.67 349.305C349.032 350.281 351.18 352.364 351.18 355.488C351.18 360.305 348.316 362.714 342.588 362.714L341.741 359.199C342.662 359.21 343.55 358.859 344.215 358.222C344.519 357.967 344.764 357.648 344.933 357.288C345.101 356.929 345.19 356.537 345.191 356.139C345.191 353.991 343.694 352.689 340.765 352.169L341.611 347.547C337.768 347.504 333.944 347.002 330.22 346.05L331.912 339.02C335.339 340.141 338.917 340.734 342.522 340.777C345.206 340.912 347.893 340.582 350.464 339.801C351.173 339.587 351.793 339.147 352.228 338.547C352.663 337.948 352.89 337.222 352.872 336.481C352.874 335.66 352.665 334.852 352.266 334.134C351.867 333.417 351.292 332.813 350.594 332.38C348.077 330.822 345.391 329.556 342.588 328.605C339.614 327.548 336.857 325.961 334.451 323.918C333.377 322.897 332.527 321.664 331.955 320.297C331.384 318.929 331.103 317.458 331.131 315.977C331.064 314.3 331.43 312.635 332.194 311.142C332.958 309.648 334.094 308.376 335.492 307.449C339.405 305.089 343.953 303.997 348.511 304.325C352.334 304.284 356.151 304.633 359.902 305.366L358.601 312.462C355.343 311.401 351.936 310.874 348.511 310.899C343.043 310.899 340.309 312.201 340.309 314.87C340.311 315.566 340.484 316.251 340.813 316.864C341.142 317.477 341.618 318 342.197 318.385C344.502 319.669 346.921 320.736 349.422 321.575C352.669 322.61 355.694 324.244 358.34 326.391C359.555 327.488 360.517 328.837 361.158 330.343C361.799 331.85 362.103 333.478 362.05 335.114Z" fill="white"/>
<path d="M406.119 346.375H394.793C393.34 342.745 391.367 339.347 388.934 336.286C384.595 330.167 381.665 327.108 380.146 327.108H378.975C378.975 331.99 378.975 338.369 378.975 346.636H369.211C369.536 340.126 369.667 333.031 369.667 325.025C369.667 317.018 369.666 310.704 369.211 305.497H378.975C378.975 311.355 378.975 316.823 378.975 321.965H379.691C380.732 321.965 383.271 319.362 387.372 314.154C389.781 311.563 391.818 308.649 393.426 305.497H403.71C401.969 308.448 399.772 311.106 397.201 313.373C394.346 316.724 391.138 319.758 387.632 322.421V322.877C392.126 326.299 395.907 330.567 398.763 335.44C401.635 338.784 404.104 342.455 406.119 346.375Z" fill="white"/>
<path d="M465.029 324.244C465.016 330.166 462.679 335.846 458.519 340.061C456.194 342.334 453.415 344.089 450.363 345.211C447.312 346.333 444.057 346.796 440.814 346.571C437.429 346.571 432.677 346.571 426.688 346.18C426.688 339.671 427.144 332.576 427.144 324.569C427.144 316.562 427.144 310.248 426.688 305.041H432.742H437.168H441.009C444.26 304.743 447.538 305.09 450.654 306.062C453.771 307.034 456.665 308.611 459.17 310.704C461.006 312.452 462.47 314.552 463.477 316.878C464.483 319.204 465.011 321.709 465.029 324.244ZM455.525 325.611C455.606 321.817 454.232 318.137 451.684 315.326C450.103 313.853 448.234 312.722 446.196 312.006C444.157 311.289 441.992 311.001 439.837 311.16C438.466 311.196 437.097 311.305 435.736 311.485C435.736 315.716 436.062 320.143 436.062 324.504C436.062 328.865 436.062 334.594 436.062 339.541C437.566 339.818 439.09 339.97 440.618 339.996C442.657 340.158 444.707 339.855 446.612 339.111C448.517 338.367 450.229 337.201 451.619 335.7C454.107 332.925 455.495 329.337 455.525 325.611Z" fill="white"/>
<path d="M510.138 305.041C510.138 312.136 509.813 319.231 509.813 326.392C509.813 340.452 503.521 347.482 490.936 347.482C488.408 347.673 485.868 347.357 483.465 346.552C481.061 345.747 478.843 344.47 476.941 342.795C473.235 338.027 471.531 332.004 472.189 326.001C472.189 318.906 472.189 311.876 472.189 305.041H482.018C481.692 312.136 481.562 319.101 481.562 325.741C481.2 329.881 482.036 334.039 483.971 337.718C484.949 338.744 486.126 339.561 487.43 340.119C488.733 340.677 490.136 340.964 491.554 340.964C492.972 340.964 494.375 340.677 495.679 340.119C496.982 339.561 498.159 338.744 499.138 337.718C501.052 334.01 501.865 329.831 501.481 325.676C501.481 319.166 501.481 312.331 501.025 305.041H510.138Z" fill="white"/>
<path d="M554.077 333.942C554.077 342.34 546.526 346.571 531.489 346.571H519.317C519.642 340.061 519.772 332.966 519.772 324.96C519.772 316.953 519.772 310.639 519.317 305.431H524.915H530.317H536.176C546.395 305.431 551.538 308.426 551.538 314.545C551.553 316.788 550.769 318.964 549.326 320.682C547.882 322.399 545.874 323.547 543.662 323.918V324.374C546.309 324.727 548.821 325.758 550.952 327.368C551.929 328.162 552.717 329.165 553.257 330.302C553.798 331.44 554.078 332.683 554.077 333.942ZM542.164 316.497C542.164 312.722 539.626 310.769 534.418 310.769C532.237 310.747 530.059 310.922 527.909 311.29C528.232 314.948 528.362 318.62 528.3 322.291H531.033C538.454 322.334 542.164 320.403 542.164 316.497ZM544.703 334.268C544.703 330.037 540.667 327.759 532.596 327.759C531.23 327.684 529.861 327.684 528.495 327.759C528.495 332.12 528.495 336.221 528.82 339.996C529.99 340.085 531.165 340.085 532.335 339.996C535.476 340.388 538.664 340.144 541.709 339.28C542.669 338.862 543.474 338.154 544.011 337.255C544.548 336.356 544.79 335.312 544.703 334.268Z" fill="white"/>
<path d="M601.074 346.375H589.943C589.287 342.335 588.241 338.367 586.819 334.528H570.806C569.305 338.351 568.214 342.322 567.551 346.375H557.136C559.463 339.467 562.158 332.687 565.208 326.066C568.414 319.267 571.112 312.239 573.279 305.041H586.298C588.308 312.09 590.765 319.004 593.653 325.741C596.546 332.461 599.024 339.352 601.074 346.375ZM585.061 328.409C582.747 322.627 580.769 316.715 579.138 310.704H578.552C576.841 316.714 574.798 322.625 572.433 328.409H585.061Z" fill="white"/>
<path d="M658.291 346.375H648.072C646.514 341.49 644.326 336.829 641.562 332.51C640.692 331.568 639.618 330.838 638.422 330.375C637.226 329.913 635.94 329.73 634.662 329.841H630.822C630.822 335.244 630.822 340.777 630.822 346.31H621.774C621.774 339.801 622.23 332.706 622.23 324.699C622.23 316.693 622.23 310.379 621.774 305.171H627.828H632.124H638.243C648.853 305.171 654.19 308.491 654.19 315.13C654.154 317.729 653.23 320.236 651.573 322.237C649.915 324.238 647.623 325.612 645.077 326.131V326.261C647.7 327.056 649.901 328.859 651.196 331.274C653.979 336.101 656.352 341.152 658.291 346.375ZM645.273 317.148C645.273 312.917 642.278 310.639 636.42 310.639C634.479 310.608 632.539 310.761 630.627 311.095C630.627 314.349 631.017 318.646 631.017 324.113H634.272C641.627 324.179 645.338 321.835 645.338 317.148H645.273Z" fill="white"/>
<path d="M693.832 339.28V346.245H664.085C664.085 339.736 664.54 332.641 664.54 324.634C664.54 316.628 664.54 310.314 664.085 305.106H692.205L691.814 312.006C684.915 311.68 678.796 311.55 673.002 311.55C673.002 314.479 673.328 318.06 673.328 321.965C678.145 321.965 683.287 321.965 688.82 321.575V328.084C683.417 328.084 678.21 328.084 673.328 328.084C673.328 332.38 673.328 336.416 673.328 340.126C679.902 339.931 686.672 339.736 693.832 339.28Z" fill="white"/>
<path d="M730.936 335.114C730.936 343.381 724.426 347.547 711.408 347.547C707.26 347.57 703.126 347.068 699.105 346.05L700.797 339.02C704.225 340.136 707.803 340.729 711.408 340.777C714.092 340.917 716.779 340.587 719.349 339.801C720.065 339.59 720.693 339.152 721.139 338.553C721.585 337.955 721.825 337.228 721.823 336.481C721.811 335.655 721.59 334.846 721.18 334.128C720.77 333.411 720.185 332.81 719.479 332.38C716.962 330.822 714.276 329.556 711.473 328.605C708.499 327.548 705.742 325.961 703.336 323.918C702.262 322.897 701.412 321.664 700.84 320.297C700.269 318.93 699.988 317.458 700.016 315.977C699.95 314.293 700.323 312.622 701.099 311.126C701.876 309.631 703.028 308.364 704.443 307.449C708.253 305.13 712.685 304.04 717.136 304.325C720.959 304.28 724.776 304.629 728.527 305.366L727.225 312.462C723.968 311.401 720.561 310.874 717.136 310.899C711.668 310.899 708.934 312.201 708.934 314.87C708.935 315.566 709.108 316.251 709.438 316.864C709.767 317.477 710.242 318 710.822 318.385C713.145 319.678 715.586 320.746 718.112 321.575C721.334 322.623 724.335 324.256 726.965 326.392C728.228 327.464 729.238 328.802 729.925 330.309C730.611 331.817 730.956 333.458 730.936 335.114Z" fill="white"/>
<path d="M770.122 305.041V311.876C765.5 311.55 761.204 311.355 757.103 311.355C757.103 315.391 757.103 319.817 757.103 324.764C757.103 332.38 757.103 339.606 757.494 346.375H747.795C747.795 339.866 748.186 332.445 748.186 324.764C748.186 319.947 748.186 315.456 748.186 311.355C744.931 311.355 740.505 311.355 734.776 311.876L735.102 305.041H770.122Z" fill="white"/>
<path d="M813.8 346.375H802.734C802.04 342.336 800.972 338.37 799.544 334.528H783.531C782.031 338.351 780.94 342.322 780.277 346.375H769.862C772.189 339.467 774.883 332.687 777.933 326.066C781.142 319.26 783.861 312.234 786.07 305.041H799.089C801.057 312.095 803.492 319.01 806.379 325.741C809.272 332.461 811.75 339.352 813.8 346.375ZM797.787 328.409C795.473 322.627 793.495 316.715 791.863 310.704H791.277C789.566 316.714 787.524 322.625 785.159 328.409H797.787Z" fill="white"/>
<path d="M855.915 305.041C855.915 312.136 855.915 319.231 855.915 326.392C855.915 340.452 849.645 347.482 837.103 347.482C834.566 347.679 832.014 347.365 829.6 346.56C827.185 345.755 824.956 344.475 823.043 342.795C819.391 338.002 817.714 331.992 818.357 326.001C818.357 318.906 818.357 311.876 818.031 305.041H827.795C827.795 312.136 827.405 319.101 827.405 325.741C827.008 329.883 827.846 334.051 829.813 337.718C830.786 338.742 831.957 339.558 833.255 340.115C834.553 340.672 835.951 340.96 837.364 340.96C838.777 340.96 840.174 340.672 841.472 340.115C842.77 339.558 843.942 338.742 844.915 337.718C846.887 334.029 847.725 329.839 847.323 325.676C847.323 319.166 847.323 312.331 846.868 305.041H855.915Z" fill="white"/>
<path d="M901.611 346.375H891.392C889.834 341.49 887.645 336.829 884.882 332.51C884.012 331.568 882.938 330.838 881.742 330.375C880.546 329.913 879.26 329.73 877.982 329.841H874.142C874.142 335.244 874.142 340.777 874.142 346.31H864.508C864.833 339.801 864.964 332.706 864.964 324.699C864.964 316.693 864.964 310.379 864.508 305.171H870.562H874.858H880.977C891.587 305.171 896.925 308.491 896.925 315.13C896.888 317.729 895.964 320.236 894.307 322.237C892.649 324.238 890.357 325.612 887.811 326.131V326.261C890.434 327.056 892.635 328.859 893.93 331.274C896.914 336.081 899.484 341.133 901.611 346.375ZM888.593 317.148C888.593 312.917 885.598 310.639 879.74 310.639C877.799 310.608 875.859 310.761 873.947 311.095C873.947 314.349 874.337 318.646 874.337 324.113H877.592C884.947 324.179 888.658 321.835 888.658 317.148H888.593Z" fill="white"/>
<path d="M946.721 346.375H935.655C934.961 342.336 933.893 338.37 932.465 334.528H916.453C914.952 338.351 913.861 342.322 913.198 346.375H902.783C905.11 339.467 907.805 332.687 910.854 326.066C914.063 319.26 916.782 312.234 918.991 305.041H932.01C933.978 312.095 936.413 319.01 939.3 325.741C942.193 332.461 944.671 339.352 946.721 346.375ZM930.708 328.409C928.394 322.627 926.416 316.715 924.784 310.704H924.199C922.488 316.714 920.445 322.625 918.08 328.409H930.708Z" fill="white"/>
<path d="M989.227 346.375H980.7C978.065 341.522 974.923 336.962 971.326 332.771C966.683 327.363 962.846 321.311 959.935 314.805H959.414C959.926 318.974 960.208 323.168 960.26 327.368C960.26 332.641 960.26 339.02 960.716 346.505H951.798C952.189 339.996 952.319 332.706 952.319 324.895C952.319 317.083 952.319 310.574 951.798 305.366H962.083C964.323 310.206 967.214 314.718 970.675 318.776C974.858 323.96 978.378 329.646 981.156 335.7H981.676C981.132 331.491 980.85 327.251 980.83 323.007C980.83 317.279 980.83 311.355 980.309 305.366H988.967C988.641 310.574 988.511 317.148 988.511 324.895C988.511 332.641 988.902 339.931 989.227 346.375Z" fill="white"/>
<path d="M1030.82 305.041V311.876C1026.2 311.55 1021.84 311.355 1017.8 311.355C1017.8 315.391 1017.8 319.817 1017.8 324.764C1017.8 332.38 1017.8 339.606 1018.19 346.375H1008.49C1008.82 339.866 1008.95 332.445 1008.95 324.764C1008.95 319.947 1008.95 315.456 1008.95 311.355C1005.7 311.355 1001.2 311.355 995.541 311.876V305.041H1030.82Z" fill="white"/>
<path d="M0 15.1792C0 191.973 90.6103 335.049 202.701 335.049L0 15.1792Z" fill="white"/>
<path d="M47.6137 241.52C50.8239 233.396 44.9155 223.447 34.417 219.298C23.9184 215.15 12.8053 218.374 9.59511 226.498C6.38489 234.623 12.2932 244.572 22.7917 248.72C33.2903 252.869 44.4035 249.645 47.6137 241.52Z" fill="white"/>
<path d="M1440 222.502C1308.58 340.777 1141.61 369.093 1066.69 285.773L1440 222.502Z" fill="white"/>
</svg>
